<?xml version="1.0" standalone="no"?><!DOCTYPE svg PUBLIC "-//W3C//DTD SVG 1.1//EN" "http://www.w3.org/Graphics/SVG/1.1/DTD/svg11.dtd"><svg t="1513069061542" class="icon" style="" viewBox="0 0 1024 1024" version="1.1" xmlns="http://www.w3.org/2000/svg" p-id="9232" xmlns:xlink="http://www.w3.org/1999/xlink" width="600" height="600"><defs><style type="text/css"></style></defs><path d="M512 796.8l217.6 137.6c19.2 12.8 44.8 6.4 57.6-12.8 6.4-9.6 9.6-22.4 6.4-32l-57.6-265.6 198.4-179.2c16-16 19.2-41.6 3.2-60.8-6.4-6.4-16-12.8-28.8-12.8l-259.2-22.4-99.2-246.4c-9.6-22.4-35.2-32-54.4-22.4-9.6 3.2-19.2 12.8-22.4 22.4l-99.2 246.4-259.2 22.4c-22.4 3.2-41.6 22.4-38.4 44.8 0 9.6 6.4 19.2 12.8 28.8l198.4 179.2-57.6 265.6c-6.4 22.4 9.6 44.8 32 51.2 9.6 3.2 22.4 0 32-6.4l217.6-137.6z" fill="#FFFFFF" p-id="9233"></path><path d="M513.056 794.656l217.6 137.6c19.2 12.8 44.8 6.4 57.6-12.8 6.4-9.6 9.6-22.4 6.4-32l-57.6-265.6 198.4-179.2c16-16 19.2-41.6 3.2-60.8-6.4-6.4-16-12.8-28.8-12.8l-259.2-22.4-99.2-246.4c-9.6-22.4-35.2-32-54.4-22.4-9.6 3.2-19.2 12.8-22.4 22.4l-99.2 246.4-259.2 22.4c-22.4 3.2-41.6 22.4-38.4 44.8 0 9.6 6.4 19.2 12.8 28.8l198.4 179.2-57.6 265.6c-6.4 22.4 9.6 44.8 32 51.2 9.6 3.2 22.4 0 32-6.4l217.6-137.6z" fill="#FACA51" p-id="9234"></path></svg>